<?xml version="1.0" encoding="utf-8"?>
<!-- Generator: Adobe Illustrator 16.0.0, SVG Export Plug-In . SVG Version: 6.00 Build 0)  -->
<!DOCTYPE svg PUBLIC "-//W3C//DTD SVG 1.1//EN" "http://www.w3.org/Graphics/SVG/1.1/DTD/svg11.dtd">
<svg version="1.1" id="Layer_1" xmlns="http://www.w3.org/2000/svg" xmlns:xlink="http://www.w3.org/1999/xlink" x="0px" y="0px"
	 width="27.784px" height="29.251px" viewBox="0 0 27.784 29.251" enable-background="new 0 0 27.784 29.251" xml:space="preserve">
<g>
	<rect x="10.236" y="28.52" fill="#040404" width="0.732" height="0.732"/>
	<rect x="9.507" y="28.52" fill="#040404" width="0.729" height="0.732"/>
	<rect x="8.774" y="28.52" fill="#040404" width="0.732" height="0.732"/>
	<rect x="8.045" y="28.52" fill="#040404" width="0.729" height="0.732"/>
	<rect x="7.312" y="28.52" fill="#040404" width="0.732" height="0.732"/>
	<rect x="6.581" y="28.52" fill="#040404" width="0.731" height="0.732"/>
	<rect x="5.85" y="28.52" fill="#040404" width="0.731" height="0.732"/>
	<rect x="5.119" y="28.52" fill="#040404" width="0.73" height="0.732"/>
	<rect x="4.388" y="28.52" fill="#040404" width="0.731" height="0.732"/>
	<rect x="3.657" y="28.52" fill="#040404" width="0.73" height="0.732"/>
	<rect x="2.926" y="28.52" fill="#040404" width="0.731" height="0.732"/>
	<rect x="2.194" y="28.52" fill="#040404" width="0.731" height="0.732"/>
	<rect x="1.463" y="28.52" fill="#040404" width="0.731" height="0.732"/>
	<rect x="0.732" y="28.52" fill="#040404" width="0.73" height="0.732"/>
	<rect y="28.52" fill="#040404" width="0.732" height="0.732"/>
	<rect x="21.937" y="27.788" fill="#040404" width="0.729" height="0.731"/>
	<rect x="16.817" y="27.788" fill="#040404" width="0.73" height="0.731"/>
	<rect x="16.088" y="27.788" fill="#040404" width="0.729" height="0.731"/>
	<rect x="10.236" y="27.788" fill="#040404" width="0.732" height="0.731"/>
	<rect y="27.788" fill="#040404" width="0.732" height="0.731"/>
	<rect x="16.088" y="27.057" fill="#040404" width="0.729" height="0.731"/>
	<rect x="10.236" y="27.057" fill="#040404" width="0.732" height="0.731"/>
	<rect x="4.388" y="27.057" fill="#040404" width="0.731" height="0.731"/>
	<rect y="27.057" fill="#040404" width="0.732" height="0.731"/>
	<rect x="16.088" y="26.326" fill="#040404" width="0.729" height="0.731"/>
	<rect x="10.236" y="26.326" fill="#040404" width="0.732" height="0.731"/>
	<rect x="5.119" y="26.326" fill="#040404" width="0.73" height="0.731"/>
	<rect x="4.388" y="26.326" fill="#040404" width="0.731" height="0.731"/>
	<rect y="26.326" fill="#040404" width="0.732" height="0.731"/>
	<rect x="16.088" y="25.595" fill="#040404" width="0.729" height="0.73"/>
	<rect x="15.355" y="25.595" fill="#040404" width="0.732" height="0.73"/>
	<rect x="14.625" y="25.595" fill="#040404" width="0.73" height="0.73"/>
	<rect x="13.894" y="25.595" fill="#040404" width="0.731" height="0.73"/>
	<rect x="13.162" y="25.595" fill="#040404" width="0.731" height="0.73"/>
	<rect x="12.43" y="25.595" fill="#040404" width="0.732" height="0.73"/>
	<rect x="11.7" y="25.595" fill="#040404" width="0.729" height="0.73"/>
	<rect x="10.969" y="25.595" fill="#040404" width="0.731" height="0.73"/>
	<rect x="10.236" y="25.595" fill="#040404" width="0.732" height="0.73"/>
	<rect x="5.85" y="25.595" fill="#040404" width="0.731" height="0.73"/>
	<rect x="5.119" y="25.595" fill="#040404" width="0.73" height="0.73"/>
	<rect x="4.388" y="25.595" fill="#040404" width="0.731" height="0.73"/>
	<rect y="25.595" fill="#040404" width="0.732" height="0.73"/>
	<rect x="16.088" y="24.862" fill="#040404" width="0.729" height="0.733"/>
	<rect x="10.236" y="24.862" fill="#040404" width="0.732" height="0.733"/>
	<rect x="5.119" y="24.862" fill="#040404" width="0.73" height="0.733"/>
	<rect x="4.388" y="24.862" fill="#040404" width="0.731" height="0.733"/>
	<rect y="24.862" fill="#040404" width="0.732" height="0.733"/>
	<rect x="16.088" y="24.133" fill="#040404" width="0.729" height="0.729"/>
	<rect x="15.355" y="24.133" fill="#040404" width="0.732" height="0.729"/>
	<rect x="14.625" y="24.133" fill="#040404" width="0.73" height="0.729"/>
	<rect x="13.894" y="24.133" fill="#040404" width="0.731" height="0.729"/>
	<rect x="13.162" y="24.133" fill="#040404" width="0.731" height="0.729"/>
	<rect x="12.43" y="24.133" fill="#040404" width="0.732" height="0.729"/>
	<rect x="11.7" y="24.133" fill="#040404" width="0.729" height="0.729"/>
	<rect x="10.969" y="24.133" fill="#040404" width="0.731" height="0.729"/>
	<rect x="10.236" y="24.133" fill="#040404" width="0.732" height="0.729"/>
	<rect x="4.388" y="24.133" fill="#040404" width="0.731" height="0.729"/>
	<rect y="24.133" fill="#040404" width="0.732" height="0.729"/>
	<rect x="16.088" y="23.4" fill="#040404" width="0.729" height="0.733"/>
	<rect x="10.236" y="23.4" fill="#040404" width="0.732" height="0.733"/>
	<rect y="23.4" fill="#040404" width="0.732" height="0.733"/>
	<rect x="16.088" y="22.67" fill="#040404" width="0.729" height="0.729"/>
	<rect x="10.236" y="22.67" fill="#040404" width="0.732" height="0.729"/>
	<rect x="9.507" y="22.67" fill="#040404" width="0.729" height="0.729"/>
	<rect x="8.774" y="22.67" fill="#040404" width="0.732" height="0.729"/>
	<rect x="8.045" y="22.67" fill="#040404" width="0.729" height="0.729"/>
	<rect x="7.312" y="22.67" fill="#040404" width="0.732" height="0.729"/>
	<rect x="6.581" y="22.67" fill="#040404" width="0.731" height="0.729"/>
	<rect x="5.85" y="22.67" fill="#040404" width="0.731" height="0.729"/>
	<rect x="5.119" y="22.67" fill="#040404" width="0.73" height="0.729"/>
	<rect x="4.388" y="22.67" fill="#040404" width="0.731" height="0.729"/>
	<rect x="3.657" y="22.67" fill="#040404" width="0.73" height="0.729"/>
	<rect x="2.926" y="22.67" fill="#040404" width="0.731" height="0.729"/>
	<rect x="2.194" y="22.67" fill="#040404" width="0.731" height="0.729"/>
	<rect x="1.463" y="22.67" fill="#040404" width="0.731" height="0.729"/>
	<rect x="0.732" y="22.67" fill="#040404" width="0.73" height="0.729"/>
	<rect y="22.67" fill="#040404" width="0.732" height="0.729"/>
	<rect x="16.088" y="21.938" fill="#040404" width="0.729" height="0.732"/>
	<rect x="10.236" y="21.938" fill="#040404" width="0.732" height="0.732"/>
	<rect x="8.774" y="21.938" fill="#040404" width="0.732" height="0.732"/>
	<rect x="5.85" y="21.938" fill="#040404" width="0.731" height="0.732"/>
	<rect x="2.926" y="21.938" fill="#040404" width="0.731" height="0.732"/>
	<rect y="21.938" fill="#040404" width="0.732" height="0.732"/>
	<rect x="22.666" y="21.207" fill="#040404" width="0.733" height="0.731"/>
	<rect x="21.204" y="28.52" fill="#040404" width="0.732" height="0.732"/>
	<rect x="26.323" y="27.788" fill="#040404" width="0.731" height="0.731"/>
	<rect x="25.592" y="27.788" fill="#040404" width="0.731" height="0.731"/>
	<rect x="22.666" y="27.788" fill="#040404" width="0.733" height="0.731"/>
	<rect x="21.204" y="27.788" fill="#040404" width="0.732" height="0.731"/>
	<rect x="20.474" y="27.788" fill="#040404" width="0.73" height="0.731"/>
	<rect x="19.743" y="27.788" fill="#040404" width="0.73" height="0.731"/>
	<rect x="26.323" y="27.057" fill="#040404" width="0.731" height="0.731"/>
	<rect x="24.861" y="27.057" fill="#040404" width="0.73" height="0.731"/>
	<rect x="24.129" y="27.057" fill="#040404" width="0.732" height="0.731"/>
	<rect x="23.399" y="27.057" fill="#040404" width="0.729" height="0.731"/>
	<rect x="21.204" y="27.057" fill="#040404" width="0.732" height="0.731"/>
	<rect x="19.011" y="27.057" fill="#040404" width="0.732" height="0.731"/>
	<rect x="18.281" y="27.057" fill="#040404" width="0.729" height="0.731"/>
	<rect x="17.549" y="27.057" fill="#040404" width="0.732" height="0.731"/>
	<rect x="26.323" y="26.326" fill="#040404" width="0.731" height="0.731"/>
	<rect x="21.204" y="26.326" fill="#040404" width="0.732" height="0.731"/>
	<rect x="26.323" y="25.595" fill="#040404" width="0.731" height="0.73"/>
	<rect x="21.204" y="25.595" fill="#040404" width="0.732" height="0.73"/>
	<rect x="26.323" y="24.862" fill="#040404" width="0.731" height="0.733"/>
	<rect x="24.861" y="24.862" fill="#040404" width="0.73" height="0.733"/>
	<rect x="24.129" y="24.862" fill="#040404" width="0.732" height="0.733"/>
	<rect x="23.399" y="24.862" fill="#040404" width="0.729" height="0.733"/>
	<rect x="21.204" y="24.862" fill="#040404" width="0.732" height="0.733"/>
	<rect x="19.743" y="24.862" fill="#040404" width="0.73" height="0.733"/>
	<rect x="19.011" y="24.862" fill="#040404" width="0.732" height="0.733"/>
	<rect x="18.281" y="24.862" fill="#040404" width="0.729" height="0.733"/>
	<rect x="26.323" y="24.133" fill="#040404" width="0.731" height="0.729"/>
	<rect x="21.204" y="24.133" fill="#040404" width="0.732" height="0.729"/>
	<rect x="26.323" y="23.4" fill="#040404" width="0.731" height="0.733"/>
	<rect x="21.204" y="23.4" fill="#040404" width="0.732" height="0.733"/>
	<rect x="26.323" y="22.67" fill="#040404" width="0.731" height="0.729"/>
	<rect x="24.861" y="22.67" fill="#040404" width="0.73" height="0.729"/>
	<rect x="24.129" y="22.67" fill="#040404" width="0.732" height="0.729"/>
	<rect x="23.399" y="22.67" fill="#040404" width="0.729" height="0.729"/>
	<rect x="21.204" y="22.67" fill="#040404" width="0.732" height="0.729"/>
	<rect x="19.743" y="22.67" fill="#040404" width="0.73" height="0.729"/>
	<rect x="19.011" y="22.67" fill="#040404" width="0.732" height="0.729"/>
	<rect x="18.281" y="22.67" fill="#040404" width="0.729" height="0.729"/>
	<rect x="26.323" y="21.938" fill="#040404" width="0.731" height="0.732"/>
	<rect x="21.204" y="21.938" fill="#040404" width="0.732" height="0.732"/>
	<rect x="26.323" y="21.207" fill="#040404" width="0.731" height="0.731"/>
	<rect x="21.204" y="21.207" fill="#040404" width="0.732" height="0.731"/>
	<rect x="20.474" y="21.207" fill="#040404" width="0.73" height="0.731"/>
	<rect x="19.743" y="21.207" fill="#040404" width="0.73" height="0.731"/>
	<rect x="25.592" y="20.477" fill="#040404" width="0.731" height="0.73"/>
	<rect x="24.861" y="20.477" fill="#040404" width="0.73" height="0.73"/>
	<rect x="24.129" y="20.477" fill="#040404" width="0.732" height="0.73"/>
	<rect x="23.399" y="20.477" fill="#040404" width="0.729" height="0.73"/>
	<rect x="21.204" y="20.477" fill="#040404" width="0.732" height="0.73"/>
	<rect x="19.011" y="20.477" fill="#040404" width="0.732" height="0.73"/>
	<rect x="18.281" y="20.477" fill="#040404" width="0.729" height="0.73"/>
	<rect x="17.549" y="20.477" fill="#040404" width="0.732" height="0.73"/>
	<rect x="16.817" y="20.477" fill="#040404" width="0.731" height="0.73"/>
	<rect x="21.204" y="19.745" fill="#040404" width="0.732" height="0.732"/>
	<rect x="21.204" y="19.015" fill="#040404" width="0.732" height="0.73"/>
	<rect x="21.204" y="18.283" fill="#040404" width="0.732" height="0.732"/>
	<rect x="21.204" y="17.551" fill="#040404" width="0.732" height="0.731"/>
	<rect x="3.657" y="5.123" fill="#040404" width="0.73" height="0.731"/>
	<rect x="18.281" y="3.66" fill="#040404" width="0.729" height="0.732"/>
	<rect x="21.937" y="21.207" fill="#040404" width="0.729" height="0.731"/>
	<rect x="16.088" y="21.207" fill="#040404" width="0.729" height="0.731"/>
	<rect x="10.236" y="21.207" fill="#040404" width="0.732" height="0.731"/>
	<rect x="8.774" y="21.207" fill="#040404" width="0.732" height="0.731"/>
	<rect x="5.85" y="21.207" fill="#040404" width="0.731" height="0.731"/>
	<rect x="2.926" y="21.207" fill="#040404" width="0.731" height="0.731"/>
	<rect y="21.207" fill="#040404" width="0.732" height="0.731"/>
	<rect x="10.236" y="20.477" fill="#040404" width="0.732" height="0.73"/>
	<rect x="9.507" y="20.477" fill="#040404" width="0.729" height="0.73"/>
	<rect x="8.774" y="20.477" fill="#040404" width="0.732" height="0.73"/>
	<rect x="8.045" y="20.477" fill="#040404" width="0.729" height="0.73"/>
	<rect x="7.312" y="20.477" fill="#040404" width="0.732" height="0.73"/>
	<rect x="6.581" y="20.477" fill="#040404" width="0.731" height="0.73"/>
	<rect x="5.85" y="20.477" fill="#040404" width="0.731" height="0.73"/>
	<rect x="5.119" y="20.477" fill="#040404" width="0.73" height="0.73"/>
	<rect x="4.388" y="20.477" fill="#040404" width="0.731" height="0.73"/>
	<rect x="3.657" y="20.477" fill="#040404" width="0.73" height="0.73"/>
	<rect x="2.926" y="20.477" fill="#040404" width="0.731" height="0.73"/>
	<rect x="2.194" y="20.477" fill="#040404" width="0.731" height="0.73"/>
	<rect x="1.463" y="20.477" fill="#040404" width="0.731" height="0.73"/>
	<rect x="0.732" y="20.477" fill="#040404" width="0.73" height="0.73"/>
	<rect y="20.477" fill="#040404" width="0.732" height="0.73"/>
	<rect x="5.119" y="19.745" fill="#040404" width="0.73" height="0.732"/>
	<rect x="4.388" y="19.745" fill="#040404" width="0.731" height="0.732"/>
	<rect x="3.657" y="19.745" fill="#040404" width="0.73" height="0.732"/>
	<rect x="5.119" y="19.015" fill="#040404" width="0.73" height="0.73"/>
	<rect x="4.388" y="19.015" fill="#040404" width="0.731" height="0.73"/>
	<rect x="3.657" y="19.015" fill="#040404" width="0.73" height="0.73"/>
	<rect x="5.119" y="18.283" fill="#040404" width="0.73" height="0.732"/>
	<rect x="4.388" y="18.283" fill="#040404" width="0.731" height="0.732"/>
	<rect x="3.657" y="18.283" fill="#040404" width="0.73" height="0.732"/>
	<rect x="5.119" y="17.551" fill="#040404" width="0.73" height="0.731"/>
	<rect x="4.388" y="17.551" fill="#040404" width="0.731" height="0.731"/>
	<rect x="3.657" y="17.551" fill="#040404" width="0.73" height="0.731"/>
	<rect x="24.131" y="8.778" fill="#040404" width="0.73" height="0.733"/>
	<rect x="23.398" y="8.778" fill="#040404" width="0.732" height="0.733"/>
	<rect x="21.938" y="8.778" fill="#040404" width="0.73" height="0.733"/>
	<rect x="21.206" y="8.778" fill="#040404" width="0.732" height="0.733"/>
	<rect x="21.206" y="8.048" fill="#040404" width="0.729" height="0.733"/>
	<rect x="25.592" y="7.315" fill="#040404" width="0.731" height="0.73"/>
	<rect x="24.861" y="8.046" fill="#040404" width="0.731" height="0.73"/>
	<rect x="26.323" y="6.584" fill="#040404" width="0.731" height="0.731"/>
	<rect x="27.055" y="5.853" fill="#040404" width="0.729" height="0.731"/>
	<rect x="27.055" y="5.123" fill="#040404" width="0.729" height="0.73"/>
	<rect x="18.283" y="5.855" fill="#040404" width="0.729" height="0.73"/>
	<rect x="19.013" y="6.586" fill="#040404" width="0.73" height="0.73"/>
	<rect x="19.743" y="7.316" fill="#040404" width="0.729" height="0.73"/>
	<rect x="27.055" y="3.66" fill="#040404" width="0.729" height="0.732"/>
	<rect x="27.055" y="4.39" fill="#040404" width="0.729" height="0.733"/>
	<rect x="22.669" y="8.778" fill="#040404" width="0.729" height="0.733"/>
	<rect x="18.283" y="4.39" fill="#040404" width="0.729" height="0.733"/>
	<rect x="22.669" y="0.001" fill="#040404" width="0.729" height="0.733"/>
	<rect x="18.283" y="5.123" fill="#040404" width="0.729" height="0.733"/>
	<rect x="27.055" y="2.93" fill="#040404" width="0.729" height="0.73"/>
	<rect x="26.323" y="2.197" fill="#040404" width="0.731" height="0.733"/>
	<rect x="19.746" y="1.463" fill="#040404" width="0.731" height="0.733"/>
	<rect x="19.015" y="2.196" fill="#040404" width="0.731" height="0.733"/>
	<rect x="18.282" y="2.929" fill="#040404" width="0.73" height="0.732"/>
	<rect x="25.592" y="1.467" fill="#040404" width="0.731" height="0.729"/>
	<rect x="20.478" y="0.734" fill="#040404" width="0.731" height="0.729"/>
	<rect x="24.131" fill="#040404" width="0.73" height="0.734"/>
	<rect x="24.861" y="0.734" fill="#040404" width="0.73" height="0.733"/>
	<rect x="23.398" fill="#040404" width="0.732" height="0.734"/>
	<rect x="21.938" fill="#040404" width="0.73" height="0.734"/>
	<rect x="21.206" fill="#040404" width="0.732" height="0.734"/>
	<rect x="21.937" y="16.822" fill="#040404" width="0.729" height="0.729"/>
	<rect x="21.204" y="16.822" fill="#040404" width="0.732" height="0.729"/>
	<rect x="20.474" y="16.822" fill="#040404" width="0.73" height="0.729"/>
	<rect x="19.743" y="16.822" fill="#040404" width="0.73" height="0.729"/>
	<rect x="19.011" y="16.822" fill="#040404" width="0.732" height="0.729"/>
	<rect x="18.281" y="16.822" fill="#040404" width="0.729" height="0.729"/>
	<rect x="17.549" y="16.822" fill="#040404" width="0.732" height="0.729"/>
	<rect x="16.817" y="16.822" fill="#040404" width="0.731" height="0.729"/>
	<rect x="5.119" y="16.822" fill="#040404" width="0.73" height="0.729"/>
	<rect x="4.388" y="16.822" fill="#040404" width="0.731" height="0.729"/>
	<rect x="3.657" y="16.822" fill="#040404" width="0.73" height="0.729"/>
	<rect x="21.937" y="16.089" fill="#040404" width="0.729" height="0.733"/>
	<rect x="16.817" y="16.089" fill="#040404" width="0.731" height="0.733"/>
	<rect x="5.119" y="16.089" fill="#040404" width="0.73" height="0.733"/>
	<rect x="4.388" y="16.089" fill="#040404" width="0.731" height="0.733"/>
	<rect x="3.657" y="16.089" fill="#040404" width="0.73" height="0.733"/>
	<rect x="21.937" y="15.359" fill="#040404" width="0.729" height="0.729"/>
	<rect x="16.817" y="15.359" fill="#040404" width="0.731" height="0.729"/>
	<rect x="5.119" y="15.359" fill="#040404" width="0.73" height="0.729"/>
	<rect x="4.388" y="15.359" fill="#040404" width="0.731" height="0.729"/>
	<rect x="3.657" y="15.359" fill="#040404" width="0.73" height="0.729"/>
	<rect x="21.937" y="14.627" fill="#040404" width="0.729" height="0.732"/>
	<rect x="19.743" y="14.627" fill="#040404" width="0.73" height="0.732"/>
	<rect x="19.011" y="14.627" fill="#040404" width="0.732" height="0.732"/>
	<rect x="18.281" y="14.627" fill="#040404" width="0.729" height="0.732"/>
	<rect x="16.817" y="14.627" fill="#040404" width="0.731" height="0.732"/>
	<rect x="5.119" y="14.627" fill="#040404" width="0.73" height="0.732"/>
	<rect x="7.312" y="18.283" fill="#040404" width="0.732" height="0.732"/>
	<rect x="7.312" y="12.434" fill="#040404" width="0.732" height="0.731"/>
	<rect x="7.312" y="10.241" fill="#040404" width="0.732" height="0.729"/>
	<rect x="7.312" y="9.509" fill="#040404" width="0.732" height="0.731"/>
	<rect x="7.312" y="8.778" fill="#040404" width="0.732" height="0.731"/>
	<rect x="7.312" y="8.048" fill="#040404" width="0.732" height="0.73"/>
	<rect x="7.312" y="7.315" fill="#040404" width="0.732" height="0.733"/>
	<rect x="7.312" y="6.585" fill="#040404" width="0.732" height="0.729"/>
	<rect x="7.312" y="5.854" fill="#040404" width="0.732" height="0.731"/>
	<rect x="4.388" y="14.627" fill="#040404" width="0.731" height="0.732"/>
	<rect x="3.657" y="14.627" fill="#040404" width="0.73" height="0.732"/>
	<rect x="21.937" y="13.896" fill="#040404" width="0.729" height="0.731"/>
	<rect x="19.743" y="13.896" fill="#040404" width="0.73" height="0.731"/>
	<rect x="7.312" y="19.745" fill="#040404" width="0.732" height="0.732"/>
	<rect x="7.312" y="19.015" fill="#040404" width="0.732" height="0.73"/>
	<rect x="7.312" y="17.551" fill="#040404" width="0.732" height="0.731"/>
	<rect x="7.312" y="16.822" fill="#040404" width="0.732" height="0.729"/>
	<rect x="7.312" y="16.089" fill="#040404" width="0.732" height="0.733"/>
	<rect x="7.312" y="15.359" fill="#040404" width="0.732" height="0.729"/>
	<rect x="7.312" y="14.627" fill="#040404" width="0.732" height="0.732"/>
	<rect x="7.312" y="13.896" fill="#040404" width="0.732" height="0.731"/>
	<rect x="7.312" y="13.165" fill="#040404" width="0.732" height="0.731"/>
	<rect x="7.312" y="11.704" fill="#040404" width="0.732" height="0.729"/>
	<rect x="7.312" y="10.97" fill="#040404" width="0.732" height="0.734"/>
	<rect x="18.281" y="3.66" fill="#040404" width="0.732" height="0.732"/>
	<rect x="17.549" y="3.66" fill="#040404" width="0.732" height="0.732"/>
	<rect x="16.088" y="3.66" fill="#040404" width="0.729" height="0.732"/>
	<rect x="9.507" y="3.66" fill="#040404" width="0.729" height="0.732"/>
	<rect x="8.774" y="3.66" fill="#040404" width="0.732" height="0.732"/>
	<rect x="5.85" y="3.66" fill="#040404" width="0.731" height="0.732"/>
	<rect x="5.119" y="3.66" fill="#040404" width="0.73" height="0.732"/>
	<rect x="19.011" y="13.896" fill="#040404" width="0.732" height="0.731"/>
	<rect x="18.281" y="13.896" fill="#040404" width="0.729" height="0.731"/>
	<rect x="16.817" y="13.896" fill="#040404" width="0.731" height="0.731"/>
	<rect x="5.119" y="13.896" fill="#040404" width="0.73" height="0.731"/>
	<rect x="4.388" y="13.896" fill="#040404" width="0.731" height="0.731"/>
	<rect x="3.657" y="13.896" fill="#040404" width="0.73" height="0.731"/>
	<rect x="21.937" y="13.165" fill="#040404" width="0.729" height="0.731"/>
	<rect x="16.817" y="13.165" fill="#040404" width="0.731" height="0.731"/>
	<rect x="5.119" y="13.165" fill="#040404" width="0.73" height="0.731"/>
	<rect x="4.388" y="13.165" fill="#040404" width="0.731" height="0.731"/>
	<rect x="3.657" y="13.165" fill="#040404" width="0.73" height="0.731"/>
	<rect x="21.937" y="12.434" fill="#040404" width="0.729" height="0.731"/>
	<rect x="21.204" y="12.434" fill="#040404" width="0.732" height="0.731"/>
	<rect x="20.474" y="12.434" fill="#040404" width="0.73" height="0.731"/>
	<rect x="19.743" y="12.434" fill="#040404" width="0.73" height="0.731"/>
	<rect x="19.011" y="12.434" fill="#040404" width="0.732" height="0.731"/>
	<rect x="18.281" y="12.434" fill="#040404" width="0.729" height="0.731"/>
	<rect x="17.549" y="12.434" fill="#040404" width="0.732" height="0.731"/>
	<rect x="16.817" y="12.434" fill="#040404" width="0.731" height="0.731"/>
	<rect x="5.119" y="12.434" fill="#040404" width="0.73" height="0.731"/>
	<rect x="4.388" y="12.434" fill="#040404" width="0.731" height="0.731"/>
	<rect x="3.657" y="12.434" fill="#040404" width="0.73" height="0.731"/>
	<rect x="21.204" y="11.704" fill="#040404" width="0.732" height="0.729"/>
	<rect x="5.119" y="11.704" fill="#040404" width="0.73" height="0.729"/>
	<rect x="4.388" y="11.704" fill="#040404" width="0.731" height="0.729"/>
	<rect x="3.657" y="11.704" fill="#040404" width="0.73" height="0.729"/>
	<rect x="21.204" y="10.97" fill="#040404" width="0.732" height="0.734"/>
	<rect x="5.119" y="10.97" fill="#040404" width="0.73" height="0.734"/>
	<rect x="4.388" y="10.97" fill="#040404" width="0.731" height="0.734"/>
	<rect x="3.657" y="10.97" fill="#040404" width="0.73" height="0.734"/>
	<rect x="21.204" y="10.241" fill="#040404" width="0.732" height="0.729"/>
	<rect x="5.119" y="10.241" fill="#040404" width="0.73" height="0.729"/>
	<rect x="4.388" y="10.241" fill="#040404" width="0.731" height="0.729"/>
	<rect x="3.657" y="10.241" fill="#040404" width="0.73" height="0.729"/>
	<rect x="21.204" y="9.509" fill="#040404" width="0.732" height="0.731"/>
	<rect x="5.119" y="9.509" fill="#040404" width="0.73" height="0.731"/>
	<rect x="4.388" y="9.509" fill="#040404" width="0.731" height="0.731"/>
	<rect x="3.657" y="9.509" fill="#040404" width="0.73" height="0.731"/>
	<rect x="21.204" y="8.778" fill="#040404" width="0.732" height="0.731"/>
	<rect x="5.119" y="8.778" fill="#040404" width="0.73" height="0.731"/>
	<rect x="4.388" y="8.778" fill="#040404" width="0.731" height="0.731"/>
	<rect x="3.657" y="8.778" fill="#040404" width="0.73" height="0.731"/>
	<rect x="21.204" y="8.048" fill="#040404" width="0.732" height="0.73"/>
	<rect x="5.119" y="8.048" fill="#040404" width="0.73" height="0.73"/>
	<rect x="4.388" y="8.048" fill="#040404" width="0.731" height="0.73"/>
	<rect x="3.657" y="8.048" fill="#040404" width="0.73" height="0.73"/>
	<rect x="20.475" y="8.045" fill="#040404" width="0.732" height="0.733"/>
	<rect x="5.119" y="7.315" fill="#040404" width="0.73" height="0.733"/>
	<rect x="4.388" y="7.315" fill="#040404" width="0.731" height="0.733"/>
	<rect x="3.657" y="7.315" fill="#040404" width="0.73" height="0.733"/>
	<rect x="5.119" y="6.585" fill="#040404" width="0.73" height="0.729"/>
	<rect x="4.388" y="6.585" fill="#040404" width="0.731" height="0.729"/>
	<rect x="3.657" y="6.585" fill="#040404" width="0.73" height="0.729"/>
	<rect x="5.119" y="5.854" fill="#040404" width="0.73" height="0.731"/>
	<rect x="4.388" y="5.854" fill="#040404" width="0.731" height="0.731"/>
	<rect x="3.657" y="5.854" fill="#040404" width="0.73" height="0.731"/>
	<rect x="5.119" y="5.123" fill="#040404" width="0.73" height="0.731"/>
	<rect x="4.388" y="5.123" fill="#040404" width="0.731" height="0.731"/>
	<rect x="23.399" y="3.662" fill="#040404" width="0.732" height="0.73"/>
	<rect x="21.934" y="3.662" fill="#040404" width="0.732" height="0.73"/>
	<rect x="21.934" y="4.392" fill="#040404" width="0.732" height="0.73"/>
	<rect x="21.934" y="5.123" fill="#040404" width="0.732" height="0.73"/>
	<rect x="23.399" y="4.392" fill="#040404" width="0.732" height="0.73"/>
	<rect x="23.399" y="5.123" fill="#040404" width="0.732" height="0.73"/>
	<rect x="5.119" y="4.392" fill="#040404" width="0.73" height="0.73"/>
	<rect x="4.388" y="4.392" fill="#040404" width="0.731" height="0.73"/>
	<rect x="16.817" y="3.66" fill="#040404" width="0.731" height="0.732"/>
	<rect x="15.355" y="3.66" fill="#040404" width="0.732" height="0.732"/>
	<rect x="14.625" y="3.66" fill="#040404" width="0.73" height="0.732"/>
	<rect x="13.894" y="3.66" fill="#040404" width="0.731" height="0.732"/>
	<rect x="13.162" y="3.66" fill="#040404" width="0.731" height="0.732"/>
	<rect x="12.43" y="3.66" fill="#040404" width="0.732" height="0.732"/>
	<rect x="11.7" y="3.66" fill="#040404" width="0.729" height="0.732"/>
	<rect x="10.969" y="3.66" fill="#040404" width="0.731" height="0.732"/>
	<rect x="10.236" y="3.66" fill="#040404" width="0.732" height="0.732"/>
	<rect x="8.045" y="3.66" fill="#040404" width="0.729" height="0.732"/>
	<rect x="7.312" y="3.66" fill="#040404" width="0.732" height="0.732"/>
	<rect x="6.581" y="3.66" fill="#040404" width="0.731" height="0.732"/>
	<rect x="22.669" y="5.853" fill="#040404" width="0.73" height="0.731"/>
	<rect x="22.669" y="2.932" fill="#040404" width="0.73" height="0.729"/>
</g>
</svg>
