<?xml version="1.0" encoding="utf-8"?>
<!-- Generator: Adobe Illustrator 16.0.0, SVG Export Plug-In . SVG Version: 6.00 Build 0)  -->
<!DOCTYPE svg PUBLIC "-//W3C//DTD SVG 1.1//EN" "http://www.w3.org/Graphics/SVG/1.1/DTD/svg11.dtd">
<svg version="1.1" id="Layer_1" xmlns="http://www.w3.org/2000/svg" xmlns:xlink="http://www.w3.org/1999/xlink" x="0px" y="0px"
	 width="11.52px" height="8.82px" viewBox="0 0 11.52 8.82" enable-background="new 0 0 11.52 8.82" xml:space="preserve">
<g>
	<rect x="10.56" y="7.84" width="0.96" height="0.98"/>
	<rect x="9.6" y="7.84" width="0.96" height="0.98"/>
	<rect x="8.64" y="7.84" width="0.96" height="0.98"/>
	<rect x="7.68" y="7.84" width="0.96" height="0.98"/>
	<rect x="6.72" y="7.84" width="0.96" height="0.98"/>
	<rect x="5.76" y="7.84" width="0.96" height="0.98"/>
	<rect x="4.8" y="7.84" width="0.96" height="0.98"/>
	<rect x="3.84" y="7.84" width="0.96" height="0.98"/>
	<rect x="2.88" y="7.84" width="0.96" height="0.98"/>
	<rect x="1.92" y="7.84" width="0.96" height="0.98"/>
	<rect x="0.96" y="7.84" width="0.96" height="0.98"/>
	<rect y="7.84" width="0.96" height="0.98"/>
	<rect x="10.56" y="6.86" width="0.96" height="0.979"/>
	<rect x="9.6" y="6.86" width="0.96" height="0.979"/>
	<rect x="8.64" y="6.86" fill="#FFFFFF" width="0.96" height="0.979"/>
	<rect x="7.68" y="6.86" fill="#FFFFFF" width="0.96" height="0.979"/>
	<rect x="6.72" y="6.86" fill="#FFFFFF" width="0.96" height="0.979"/>
	<rect x="5.76" y="6.86" fill="#FFFFFF" width="0.96" height="0.979"/>
	<rect x="4.8" y="6.86" fill="#FFFFFF" width="0.96" height="0.979"/>
	<rect x="3.84" y="6.86" fill="#FFFFFF" width="0.96" height="0.979"/>
	<rect x="2.88" y="6.86" fill="#FFFFFF" width="0.96" height="0.979"/>
	<rect x="1.92" y="6.86" fill="#FFFFFF" width="0.96" height="0.979"/>
	<rect x="0.96" y="6.86" width="0.96" height="0.979"/>
	<rect y="6.86" width="0.96" height="0.979"/>
	<rect x="10.56" y="5.88" width="0.96" height="0.98"/>
	<rect x="9.6" y="5.88" fill="#FFFFFF" width="0.96" height="0.98"/>
	<rect x="8.64" y="5.88" width="0.96" height="0.98"/>
	<rect x="7.68" y="5.88" fill="#FFFFFF" width="0.96" height="0.98"/>
	<rect x="6.72" y="5.88" fill="#FFFFFF" width="0.96" height="0.98"/>
	<rect x="5.76" y="5.88" fill="#FFFFFF" width="0.96" height="0.98"/>
	<rect x="4.8" y="5.88" fill="#FFFFFF" width="0.96" height="0.98"/>
	<rect x="3.84" y="5.88" fill="#FFFFFF" width="0.96" height="0.98"/>
	<rect x="2.88" y="5.88" fill="#FFFFFF" width="0.96" height="0.98"/>
	<rect x="1.92" y="5.88" width="0.96" height="0.98"/>
	<rect x="0.96" y="5.88" fill="#FFFFFF" width="0.96" height="0.98"/>
	<rect y="5.88" width="0.96" height="0.98"/>
	<rect x="10.56" y="4.9" width="0.96" height="0.979"/>
	<rect x="9.6" y="4.9" fill="#FFFFFF" width="0.96" height="0.979"/>
	<rect x="8.64" y="4.9" fill="#FFFFFF" width="0.96" height="0.979"/>
	<rect x="7.68" y="4.9" width="0.96" height="0.979"/>
	<rect x="6.72" y="4.9" fill="#FFFFFF" width="0.96" height="0.979"/>
	<rect x="5.76" y="4.9" width="0.96" height="0.979"/>
	<rect x="4.8" y="4.9" width="0.96" height="0.979"/>
	<rect x="3.84" y="4.9" fill="#FFFFFF" width="0.96" height="0.979"/>
	<rect x="2.88" y="4.9" width="0.96" height="0.979"/>
	<rect x="1.92" y="4.9" fill="#FFFFFF" width="0.96" height="0.979"/>
	<rect x="0.96" y="4.9" fill="#FFFFFF" width="0.96" height="0.979"/>
	<rect y="4.9" width="0.96" height="0.979"/>
	<rect x="10.56" y="3.92" width="0.96" height="0.98"/>
	<rect x="9.6" y="3.92" fill="#FFFFFF" width="0.96" height="0.98"/>
	<rect x="8.64" y="3.92" fill="#FFFFFF" width="0.96" height="0.98"/>
	<rect x="7.68" y="3.92" fill="#FFFFFF" width="0.96" height="0.98"/>
	<rect x="6.72" y="3.92" width="0.96" height="0.98"/>
	<rect x="5.76" y="3.92" fill="#FFFFFF" width="0.96" height="0.98"/>
	<rect x="4.8" y="3.92" fill="#FFFFFF" width="0.96" height="0.98"/>
	<rect x="3.84" y="3.92" width="0.96" height="0.98"/>
	<rect x="2.88" y="3.92" fill="#FFFFFF" width="0.96" height="0.98"/>
	<rect x="1.92" y="3.92" fill="#FFFFFF" width="0.96" height="0.98"/>
	<rect x="0.96" y="3.92" fill="#FFFFFF" width="0.96" height="0.98"/>
	<rect y="3.92" width="0.96" height="0.98"/>
	<rect x="10.56" y="2.94" width="0.96" height="0.979"/>
	<rect x="9.6" y="2.94" fill="#FFFFFF" width="0.96" height="0.979"/>
	<rect x="8.64" y="2.94" fill="#FFFFFF" width="0.96" height="0.979"/>
	<rect x="7.68" y="2.94" width="0.96" height="0.979"/>
	<rect x="6.72" y="2.94" fill="#FFFFFF" width="0.96" height="0.979"/>
	<rect x="5.76" y="2.94" fill="#FFFFFF" width="0.96" height="0.979"/>
	<rect x="4.8" y="2.94" fill="#FFFFFF" width="0.96" height="0.979"/>
	<rect x="3.84" y="2.94" fill="#FFFFFF" width="0.96" height="0.979"/>
	<rect x="2.88" y="2.94" width="0.96" height="0.979"/>
	<rect x="1.92" y="2.94" fill="#FFFFFF" width="0.96" height="0.979"/>
	<rect x="0.96" y="2.94" fill="#FFFFFF" width="0.96" height="0.979"/>
	<rect y="2.94" width="0.96" height="0.979"/>
	<rect x="10.56" y="1.96" width="0.96" height="0.98"/>
	<rect x="9.6" y="1.96" fill="#FFFFFF" width="0.96" height="0.98"/>
	<rect x="8.64" y="1.96" width="0.96" height="0.98"/>
	<rect x="7.68" y="1.96" fill="#FFFFFF" width="0.96" height="0.98"/>
	<rect x="6.72" y="1.96" fill="#FFFFFF" width="0.96" height="0.98"/>
	<rect x="5.76" y="1.96" fill="#FFFFFF" width="0.96" height="0.98"/>
	<rect x="4.8" y="1.96" fill="#FFFFFF" width="0.96" height="0.98"/>
	<rect x="3.84" y="1.96" fill="#FFFFFF" width="0.96" height="0.98"/>
	<rect x="2.88" y="1.96" fill="#FFFFFF" width="0.96" height="0.98"/>
	<rect x="1.92" y="1.96" width="0.96" height="0.98"/>
	<rect x="0.96" y="1.96" fill="#FFFFFF" width="0.96" height="0.98"/>
	<rect y="1.96" width="0.96" height="0.98"/>
	<rect x="10.56" y="0.98" width="0.96" height="0.979"/>
	<rect x="9.6" y="0.98" width="0.96" height="0.979"/>
	<rect x="8.64" y="0.98" fill="#FFFFFF" width="0.96" height="0.979"/>
	<rect x="7.68" y="0.98" fill="#FFFFFF" width="0.96" height="0.979"/>
	<rect x="6.72" y="0.98" fill="#FFFFFF" width="0.96" height="0.979"/>
	<rect x="5.76" y="0.98" fill="#FFFFFF" width="0.96" height="0.979"/>
	<rect x="4.8" y="0.98" fill="#FFFFFF" width="0.96" height="0.979"/>
	<rect x="3.84" y="0.98" fill="#FFFFFF" width="0.96" height="0.979"/>
	<rect x="2.88" y="0.98" fill="#FFFFFF" width="0.96" height="0.979"/>
	<rect x="1.92" y="0.98" fill="#FFFFFF" width="0.96" height="0.979"/>
	<rect x="0.96" y="0.98" width="0.96" height="0.979"/>
	<rect y="0.98" width="0.96" height="0.979"/>
	<rect x="10.56" width="0.96" height="0.98"/>
	<rect x="9.6" width="0.96" height="0.98"/>
	<rect x="8.64" width="0.96" height="0.98"/>
	<rect x="7.68" width="0.96" height="0.98"/>
	<rect x="6.72" width="0.96" height="0.98"/>
	<rect x="5.76" width="0.96" height="0.98"/>
	<rect x="4.8" width="0.96" height="0.98"/>
	<rect x="3.84" width="0.96" height="0.98"/>
	<rect x="2.88" width="0.96" height="0.98"/>
	<rect x="1.92" width="0.96" height="0.98"/>
	<rect x="0.96" width="0.96" height="0.98"/>
	<rect width="0.96" height="0.98"/>
</g>
</svg>
